<svg xmlns="http://www.w3.org/2000/svg" width="50" height="50" fill="none"><g clip-path="url(#a)"><path fill="url(#b)" d="M24 0h.3C39.5-.3 50.7 13 49 27.8A24.8 24.8 0 0 1 25.8 50c-7.8.3-15.5-3.6-20.1-9.9a25.3 25.3 0 0 1 2-32.6A24 24 0 0 1 24.1 0Z"/><path fill="#202430" d="M23.8 1.2C29.9 1 35.8 3 40.2 7c4.7 4.2 7.5 10 8 16.3.3 6.6-1.5 12.7-6 17.7a23 23 0 0 1-32.2 2 24.3 24.3 0 0 1-2-33.8 23 23 0 0 1 16-8Z"/><path fill="url(#c)" d="M21.6 9.5h.3a97 97 0 0 1 12.6.4c4 .3 8.8.4 9.6 5.2.8 5.2 1 10.6.5 15.8-.3 3.1-.6 7.5-4.3 8.3a58.7 58.7 0 0 1-12.5 1.3A117.3 117.3 0 0 1 10 39.3c-3.3-.8-4-3.6-4.4-6.6a65.3 65.3 0 0 1-.1-14c.1-2 .4-5 1.9-6.5 1.8-2 5.8-2 8.3-2.3 1.9-.2 4-.4 5.9-.4Z"/><rect width="12.3" height="12.3" x="9.2" y="19" fill="url(#d)" rx="2"/><rect width="12.3" height="12.3" x="27.9" y="19" fill="url(#e)" rx="2"/><path fill="url(#f)" d="M13.8 22.1a4 4 0 1 1 5.8 5.8 4 4 0 0 1-5.8-5.8Z"/><path fill="#A78DEC" d="M14.8 22.2a1 1 0 1 1 .4 2 1 1 0 0 1-.4-2Z"/><path fill="#87449A" d="M18.7 26.5a.5.5 0 1 1 .2 1 .5.5 0 0 1-.2-1Z"/><path fill="#4D1F6B" d="M30.4 22.1a4 4 0 1 1 5.8 5.8 4 4 0 0 1-5.8-5.8Z"/><path fill="#A78DEC" d="M31.3 22.2a1 1 0 1 1 .6 2 1 1 0 0 1-.6-2Z"/><path fill="#87449A" d="M35.3 26.5a.6.6 0 1 1 .4 1 .6.6 0 0 1-.4-1Z"/></g><defs><linearGradient id="b" x1="24.6" x2="25.4" y1=".1" y2="49.9" gradientUnits="userSpaceOnUse"><stop stop-color="#E49AC6"/><stop offset="1" stop-color="#9585E0"/></linearGradient><linearGradient id="d" x1="15.2" x2="14.9" y1="30.5" y2="21.5" gradientUnits="userSpaceOnUse"><stop stop-color="#FF99C5"/><stop offset="1" stop-color="#AD8BF9"/></linearGradient><linearGradient id="e" x1="33.8" x2="34.4" y1="31.1" y2="19.2" gradientUnits="userSpaceOnUse"><stop stop-color="#FF9AC4"/><stop offset="1" stop-color="#B08AFA"/></linearGradient><linearGradient id="f" x1="16.1" x2="17.2" y1="20.9" y2="29" gradientUnits="userSpaceOnUse"><stop stop-color="#352075"/><stop offset="1" stop-color="#7C2B7D"/></linearGradient><radialGradient id="c" cx="0" cy="0" r="1" gradientTransform="matrix(0 16.822 -26.578 0 25 23.7)" gradientUnits="userSpaceOnUse"><stop stop-color="#151535"/><stop offset="1" stop-color="#050814"/></radialGradient><clipPath id="a"><path fill="#fff" d="M0 0h50v50H0z"/></clipPath></defs></svg>