<svg xmlns="http://www.w3.org/2000/svg" width="120" height="120" fill="none"><g clip-path="url(#a)"><path fill="url(#b)" d="M57.7 0h.6a59.5 59.5 0 0 1 59.6 66.8A59.4 59.4 0 0 1 62 120a58.4 58.4 0 0 1-48.4-23.7A61.2 61.2 0 0 1 18.5 18 57.5 57.5 0 0 1 57.7 0Z"/><path fill="#202430" d="M57.2 3a54 54 0 0 1 39 13.9c11.3 10 18.1 24 19 39 1 16-3.4 30.5-14.2 42.6a55 55 0 0 1-38 18.4 55 55 0 0 1-39.3-13.7 58.4 58.4 0 0 1-5-81.2A55.3 55.3 0 0 1 57.2 3Z"/><path fill="url(#c)" d="M51.8 22.7h.8c10-.3 20.2 0 30.2 1 9.4.8 21 1 23 12.6 2 12.5 2.4 25.3 1.3 37.9-.7 7.4-1.5 17.9-10.4 20A140.9 140.9 0 0 1 66.8 97c-8.7.2-17.4 0-26-.6A101 101 0 0 1 24 94.4c-7.8-1.9-9.8-8.7-10.5-15.8a156.6 156.6 0 0 1-.4-33.9c.4-4.7 1.1-12 4.6-15.5 4.4-4.5 14-4.8 20-5.5 4.5-.4 9.6-.9 14-1Z"/><rect width="29.5" height="29.5" x="22" y="45.5" fill="url(#d)" rx="14.8"/><rect width="29.5" height="29.5" x="67" y="45.5" fill="url(#e)" rx="14.8"/><path fill="url(#f)" d="M33.1 53A9.8 9.8 0 1 1 47 67 9.8 9.8 0 0 1 33 53Z"/><path fill="#A78DEC" d="M35.6 53.3a2.4 2.4 0 1 1 1 4.7 2.4 2.4 0 0 1-1-4.7Z"/><path fill="#87449A" d="M45 63.5a1.3 1.3 0 1 1 .4 2.5 1.3 1.3 0 0 1-.5-2.5Z"/><path fill="#4D1F6B" d="M73 53a9.8 9.8 0 1 1 13.8 14A9.8 9.8 0 0 1 73 53Z"/><path fill="#A78DEC" d="M75.2 53.3a2.4 2.4 0 1 1 1.3 4.6 2.4 2.4 0 0 1-1.3-4.6Z"/><path fill="#87449A" d="M84.8 63.5a1.4 1.4 0 1 1 .8 2.6 1.4 1.4 0 0 1-.8-2.6Z"/></g><defs><linearGradient id="b" x1="59" x2="61" y1=".2" y2="119.7" gradientUnits="userSpaceOnUse"><stop stop-color="#E49AC6"/><stop offset="1" stop-color="#9585E0"/></linearGradient><linearGradient id="d" x1="36.5" x2="35.7" y1="73.2" y2="51.7" gradientUnits="userSpaceOnUse"><stop stop-color="#FF99C5"/><stop offset="1" stop-color="#AD8BF9"/></linearGradient><linearGradient id="e" x1="81" x2="82.5" y1="74.7" y2="46" gradientUnits="userSpaceOnUse"><stop stop-color="#FF9AC4"/><stop offset="1" stop-color="#B08AFA"/></linearGradient><linearGradient id="f" x1="38.7" x2="41.3" y1="50.2" y2="69.7" gradientUnits="userSpaceOnUse"><stop stop-color="#352075"/><stop offset="1" stop-color="#7C2B7D"/></linearGradient><radialGradient id="c" cx="0" cy="0" r="1" gradientTransform="matrix(0 40.3724 -63.7868 0 60 56.8)" gradientUnits="userSpaceOnUse"><stop stop-color="#151535"/><stop offset="1" stop-color="#050814"/></radialGradient><clipPath id="a"><path fill="#fff" d="M0 0h120v120H0z"/></clipPath></defs></svg>